<?xml version="1.0" encoding="UTF-8"?>
<!DOCTYPE svg PUBLIC "-//W3C//DTD SVG 1.1//EN" "http://www.w3.org/Graphics/SVG/1.1/DTD/svg11.dtd">
<!-- Creator: CorelDRAW 2020 (64-Bit) -->
<svg xmlns="http://www.w3.org/2000/svg" xml:space="preserve" width="256px" height="256px" version="1.1" style="shape-rendering:geometricPrecision; text-rendering:geometricPrecision; image-rendering:optimizeQuality; fill-rule:evenodd; clip-rule:evenodd"
viewBox="0 0 392.431 392.431"
 xmlns:xlink="http://www.w3.org/1999/xlink"
 xmlns:xodm="http://www.corel.com/coreldraw/odm/2003">
 <defs>
  <style type="text/css">
   <![CDATA[
    .fil0 {fill:black}
    .fil1 {fill:black}
   ]]>
  </style>
 </defs>
 <g id="图层_x0020_1">
  <metadata id="CorelCorpID_0Corel-Layer"/>
  <path class="fil0" d="M39.856 320.472l131.217 0c-0.78,2.45 -1.201,5.059 -1.201,7.766 0,2.708 0.42,5.317 1.201,7.766l-131.217 0c-3.373,0 -6.132,-2.759 -6.132,-6.131l0 -3.269c0,-3.373 2.759,-6.132 6.132,-6.132zm137.76 0l35.665 0c1.037,2.379 1.613,5.006 1.613,7.766 0,2.761 -0.576,5.387 -1.613,7.766l-35.664 0c-1.037,-2.379 -1.613,-5.005 -1.613,-7.766 0,-2.76 0.575,-5.387 1.612,-7.766zm42.208 0l132.751 0c3.373,0 6.132,2.759 6.132,6.132l0 3.269c0,3.372 -2.759,6.131 -6.132,6.131l-132.75 0c0.78,-2.449 1.201,-5.058 1.201,-7.766 0,-2.707 -0.422,-5.316 -1.202,-7.766z"/>
  <path class="fil0" d="M38.952 382.601c-16.018,0 -29.123,-13.104 -29.123,-29.121l0 -314.529c0,-16.018 13.105,-29.122 29.123,-29.122l314.528 0c16.018,0 29.122,13.104 29.122,29.122l0 314.529c0,16.017 -13.104,29.121 -29.122,29.121l-314.528 0zm322.821 -382.601l-331.115 0c-16.861,0 -30.658,13.796 -30.658,30.658l0 331.114c0,16.862 13.797,30.659 30.658,30.659l331.115 0c16.862,0 30.658,-13.797 30.658,-30.659l0 -331.114c0,-16.862 -13.796,-30.658 -30.658,-30.658z"/>
  <path class="fil0" d="M54.803 51.988l211.347 0c-3.259,5.041 -5.363,10.898 -5.938,17.197l-211.925 0c-1.687,0 -3.065,1.378 -3.065,3.065l0 1.635c0,1.687 1.378,3.066 3.065,3.066l211.999 0c0.699,6.325 2.943,12.186 6.346,17.195l-211.829 0c-11.594,0 -21.079,-9.484 -21.079,-21.078l0 -0.002c0,-11.594 9.485,-21.078 21.079,-21.078zm218.964 0l48.997 0c4.017,4.747 6.681,10.679 7.392,17.197l-63.781 0c0.711,-6.518 3.374,-12.45 7.392,-17.197zm56.614 0l7.247 0c11.594,0 21.079,9.484 21.079,21.078l0 0.002c0,11.594 -9.485,21.078 -21.079,21.078l-7.728 0c3.403,-5.009 5.646,-10.87 6.345,-17.195l6.366 0c1.687,0 3.066,-1.379 3.066,-3.066l0 -1.635c0,-1.687 -1.379,-3.065 -3.066,-3.065l-6.292 0c-0.576,-6.299 -2.68,-12.155 -5.938,-17.197zm-8.252 42.158l-47.727 0c-4.216,-4.689 -7.071,-10.629 -7.939,-17.195l63.605 0c-0.868,6.566 -3.722,12.506 -7.939,17.195z"/>
  <path class="fil1" d="M320.952 50.018c-5.806,-5.805 -13.827,-9.396 -22.686,-9.396 -8.86,0 -16.881,3.591 -22.686,9.396 -5.805,5.806 -9.396,13.826 -9.396,22.686 0,8.86 3.591,16.881 9.396,22.686 5.805,5.805 13.826,9.396 22.686,9.396 8.859,0 16.88,-3.591 22.686,-9.396 5.804,-5.805 9.395,-13.826 9.395,-22.686 0,-8.859 -3.591,-16.88 -9.395,-22.686z"/>
  <path class="fil0" d="M54.803 136.669l108.53 0c-3.259,5.041 -5.362,10.898 -5.938,17.196l-109.108 0c-1.687,0 -3.065,1.379 -3.065,3.066l0 1.635c0,1.686 1.378,3.065 3.065,3.065l109.182 0c0.699,6.325 2.943,12.186 6.346,17.196l-109.012 0c-11.594,0 -21.079,-9.484 -21.079,-21.078l0 -0.002c0,-11.594 9.485,-21.078 21.079,-21.078zm116.147 0l48.997 0c4.018,4.747 6.681,10.678 7.392,17.196l-63.781 0c0.712,-6.518 3.374,-12.449 7.392,-17.196zm56.614 0l110.064 0c11.594,0 21.079,9.484 21.079,21.078l0 0.002c0,11.594 -9.485,21.078 -21.079,21.078l-110.545 0c3.403,-5.009 5.646,-10.87 6.346,-17.196l109.182 0c1.687,0 3.066,-1.379 3.066,-3.065l0 -1.635c0,-1.687 -1.379,-3.066 -3.066,-3.066l-109.109 0c-0.576,-6.298 -2.679,-12.155 -5.938,-17.196zm-8.251 42.158l-47.728 0c-4.216,-4.689 -7.07,-10.629 -7.939,-17.196l63.605 0c-0.868,6.567 -3.722,12.507 -7.938,17.196z"/>
  <path class="fil1" d="M218.135 134.699c-5.806,-5.805 -13.827,-9.396 -22.686,-9.396 -8.86,0 -16.881,3.591 -22.686,9.396 -5.805,5.805 -9.396,13.826 -9.396,22.686 0,8.86 3.591,16.881 9.396,22.685 5.805,5.806 13.826,9.397 22.686,9.397 8.86,0 16.88,-3.591 22.686,-9.397 5.805,-5.804 9.396,-13.825 9.396,-22.685 0,-8.859 -3.591,-16.881 -9.396,-22.686z"/>
  <path class="fil1" d="M209.199 314.488c-3.518,-3.518 -8.38,-5.695 -13.75,-5.695 -5.37,0 -10.232,2.177 -13.751,5.695 -3.518,3.518 -5.694,8.38 -5.694,13.75 0,5.37 2.176,10.232 5.694,13.751 3.519,3.518 8.381,5.694 13.751,5.694 5.37,0 10.232,-2.176 13.75,-5.694 3.518,-3.519 5.695,-8.381 5.695,-13.751 0,-5.37 -2.177,-10.232 -5.695,-13.75z"/>
  <path class="fil0" d="M337.627 220.987l-211.347 0c3.259,5.041 5.363,10.898 5.938,17.196l211.926 0c1.686,0 3.065,1.379 3.065,3.065l0 1.635c0,1.687 -1.379,3.066 -3.065,3.066l-211.999 0c-0.699,6.325 -2.943,12.186 -6.346,17.196l211.828 0c11.594,0 21.079,-9.485 21.079,-21.078l0 -0.002c0,-11.594 -9.485,-21.078 -21.079,-21.078zm-218.964 0l-48.996 0c-4.018,4.747 -6.681,10.678 -7.392,17.196l63.781 0c-0.712,-6.518 -3.375,-12.449 -7.393,-17.196zm-56.613 0l-7.247 0c-11.594,0 -21.079,9.484 -21.079,21.078l0 0.002c0,11.593 9.485,21.078 21.079,21.078l7.727 0c-3.402,-5.009 -5.646,-10.87 -6.345,-17.196l-6.366 0c-1.686,0 -3.065,-1.379 -3.065,-3.066l0 -1.635c0,-1.686 1.379,-3.065 3.065,-3.065l6.292 0c0.576,-6.298 2.68,-12.155 5.939,-17.196zm8.251 42.158l47.727 0c4.216,-4.69 7.071,-10.629 7.94,-17.196l-63.606 0c0.869,6.567 3.723,12.506 7.939,17.196z"/>
  <path class="fil1" d="M94.165 209.621c-8.859,0 -16.881,3.591 -22.686,9.396 -5.805,5.805 -9.396,13.826 -9.396,22.686 0,8.86 3.591,16.88 9.396,22.685 5.805,5.806 13.826,9.397 22.686,9.397 8.86,0 16.881,-3.591 22.685,-9.397 5.806,-5.805 9.397,-13.825 9.397,-22.685 0,-8.86 -3.591,-16.881 -9.397,-22.686 -5.804,-5.805 -13.825,-9.396 -22.685,-9.396z"/>
 </g>
</svg>
