<svg width="32" height="32" xmlns="http://www.w3.org/2000/svg" xml:space="preserve" version="1.1" clip-rule="evenodd">
 <g>
  <title>Layer 1</title>
  <g id="svg_4">
   <path class="fil0" d="m2.51,0l26.98,0c1.38,0 2.51,1.12 2.51,2.5l0,27c0,1.38 -1.13,2.5 -2.51,2.5l-26.98,0c-1.38,0 -2.51,-1.12 -2.51,-2.5l0,-27c0,-1.38 1.13,-2.5 2.51,-2.5z" fill="black" id="svg_1"/>
   <path class="fil1" d="m18.86,29.31c-2.6,0.19 -4.65,-0.81 -6.13,-2.43c-1.48,-1.62 -2.22,-3.92 -2.22,-6.9c0,-4.65 1.14,-8.43 3.43,-11.37c1.52,-1.95 3.3,-3.25 5.36,-3.9l7.21,0c1.08,0.3 2.19,0.85 3.35,1.64l-1.06,5.66l-0.53,0c-0.99,-1.23 -1.92,-2.09 -2.8,-2.57c-0.89,-0.48 -1.86,-0.72 -2.92,-0.72c-1.08,0 -2.06,0.29 -2.93,0.87c-0.88,0.58 -1.63,1.35 -2.25,2.34c-0.58,0.92 -1.04,2.03 -1.37,3.3c-0.33,1.28 -0.49,2.61 -0.49,4c0,2.32 0.09,4.56 2.4,5.4c2.21,0.8 4.27,-1.81 4.76,-4.54l-3.66,0l9.3,-4.57c-1.18,6.68 -2.54,13.3 -9.45,13.79l0,0zm7.88,-11.71l-2.68,1.32l0.01,0l-0.24,1.38c-0.05,0.29 -0.12,0.57 -0.2,0.85c-0.58,2.05 -2.12,4.44 -4.4,4.77c-0.58,0.08 -1.17,0.01 -1.72,-0.18c-2.95,-1.07 -3.18,-3.8 -3.18,-6.51c0,-1.45 0.17,-2.89 0.53,-4.29c0.33,-1.28 0.82,-2.52 1.52,-3.64c0.67,-1.07 1.53,-1.99 2.59,-2.69c1.08,-0.72 2.28,-1.06 3.58,-1.06c1.23,0 2.4,0.27 3.48,0.86c0.71,0.38 1.37,0.92 1.96,1.52l0.57,-3.02c-0.7,-0.42 -1.45,-0.79 -2.22,-1.02l-6.85,0c-1.89,0.64 -3.4,1.87 -4.62,3.44c-2.38,3.06 -3.18,6.84 -3.18,10.65c0,2.16 0.41,4.46 1.91,6.11c1.34,1.46 3.04,2.22 5.08,2.06c1.95,-0.15 3.62,-1.03 4.93,-2.51c1.77,-1.99 2.58,-5.18 3.13,-8.04l0,0z" fill="white" fill-rule="nonzero" id="svg_2"/>
   <polygon class="fil1" points="12.68,9.38 9.27,28.81 4.49,28.81 7.9,9.38 2.02,9.38 6.5,4.71 8.5,2.61 8.5,4.71 10.26,4.71 19.26,4.71 14.79,9.38 " fill="white" fill-rule="nonzero" id="svg_3"/>
  </g>
 </g>

</svg>