<svg xmlns="http://www.w3.org/2000/svg" xml:space="preserve" clip-rule="evenodd" viewBox="0 0 32 32"><path d="M2.51 0h26.98A2.51 2.51 0 0 1 32 2.5v27c0 1.38-1.13 2.5-2.51 2.5H2.51A2.51 2.51 0 0 1 0 29.5v-27C0 1.12 1.13 0 2.51 0"/><path fill="#fff" d="M18.86 29.31c-2.6.19-4.65-.81-6.13-2.43q-2.22-2.43-2.22-6.9c0-4.65 1.14-8.43 3.43-11.37 1.52-1.95 3.3-3.25 5.36-3.9h7.21c1.08.3 2.19.85 3.35 1.64l-1.06 5.66h-.53c-.99-1.23-1.92-2.09-2.8-2.57-.89-.48-1.86-.72-2.92-.72-1.08 0-2.06.29-2.93.87-.88.58-1.63 1.35-2.25 2.34-.58.92-1.04 2.03-1.37 3.3a16 16 0 0 0-.49 4c0 2.32.09 4.56 2.4 5.4 2.21.8 4.27-1.81 4.76-4.54h-3.66l9.3-4.57c-1.18 6.68-2.54 13.3-9.45 13.79m7.88-11.71-2.68 1.32h.01l-.24 1.38c-.05.29-.12.57-.2.85-.58 2.05-2.12 4.44-4.4 4.77-.58.08-1.17.01-1.72-.18-2.95-1.07-3.18-3.8-3.18-6.51 0-1.45.17-2.89.53-4.29.33-1.28.82-2.52 1.52-3.64.67-1.07 1.53-1.99 2.59-2.69 1.08-.72 2.28-1.06 3.58-1.06 1.23 0 2.4.27 3.48.86.71.38 1.37.92 1.96 1.52l.57-3.02c-.7-.42-1.45-.79-2.22-1.02h-6.85c-1.89.64-3.4 1.87-4.62 3.44-2.38 3.06-3.18 6.84-3.18 10.65 0 2.16.41 4.46 1.91 6.11 1.34 1.46 3.04 2.22 5.08 2.06 1.95-.15 3.62-1.03 4.93-2.51 1.77-1.99 2.58-5.18 3.13-8.04" class="fil1"/><path fill="#fff" d="M12.68 9.38 9.27 28.81H4.49L7.9 9.38H2.02L6.5 4.71l2-2.1v2.1h10.76l-4.47 4.67z" class="fil1"/></svg>